<?xml version="1.0" encoding="UTF-8"?>
<svg version="1.1" xmlns="http://www.w3.org/2000/svg" width="1024" height="1024">
<path d="M0 0 C1.91918999 -0.00422974 1.91918999 -0.00422974 3.87715149 -0.00854492 C5.28294387 -0.00660078 6.68873611 -0.00455262 8.0945282 -0.00241089 C9.58505292 -0.00376702 11.07557731 -0.00554814 12.56610107 -0.00772095 C16.608089 -0.01227444 20.65005136 -0.01051312 24.69203973 -0.00734186 C28.9388487 -0.00480234 33.18565554 -0.00716071 37.4324646 -0.00872803 C44.57535696 -0.01054725 51.71823898 -0.00815215 58.86112976 -0.00338745 C67.07928787 0.00203177 75.29742108 0.00030862 83.51557857 -0.00521386 C90.59701285 -0.00977952 97.67843972 -0.01037808 104.759875 -0.00777519 C108.97733446 -0.00622834 113.1947823 -0.00597394 117.41224098 -0.00931168 C121.39068553 -0.01224 125.36909868 -0.01012545 129.3475399 -0.00441742 C130.79331791 -0.00311504 132.23909863 -0.00343989 133.68487549 -0.00568008 C141.36660897 -0.01646766 149.02018555 0.13722428 156.68917847 0.5647583 C157.39075366 0.60244666 158.09232886 0.64013502 158.81516391 0.67896545 C174.90257121 1.6668298 189.25261335 8.95400978 200.22416687 20.60061646 C203.20536955 24.04199 205.63585838 27.82058808 208.022995 31.69338989 C209.45820168 34.18819072 209.45820168 34.18819072 211.5464325 36.12698364 C214.85052729 40.98198007 217.88582226 46.02482418 220.92533875 51.04885864 C226.6570515 60.51973793 232.57364472 69.84455288 238.6438446 79.10232544 C249.12364328 95.09017875 259.35268083 111.24013478 269.6047821 127.37454224 C273.10098186 132.87164862 276.62338475 138.35072092 280.1714325 143.81448364 C285.5309545 152.07030309 290.78670513 160.38997861 296.03031921 168.71975708 C298.53169968 172.69135311 301.03935758 176.6589808 303.5464325 180.62698364 C304.54646312 182.21029763 305.54646311 183.79363098 306.5464325 185.37698364 C307.0414325 186.16073364 307.5364325 186.94448364 308.0464325 187.75198364 C309.5464325 190.12698364 311.0464325 192.50198364 312.5464325 194.87698364 C313.0411908 195.66033081 313.5359491 196.44367798 314.04570007 197.25076294 C315.04821493 198.8381189 316.05065604 200.42552143 317.05302429 202.01296997 C319.51395212 205.9101376 321.97604961 209.80655465 324.44096375 213.70120239 C335.27102608 230.81845458 346.017665 247.98583785 356.6089325 265.25198364 C362.7671554 275.28840828 369.03983377 285.24531923 375.38237 295.16604614 C378.13220058 299.46891538 380.84890842 303.79118142 383.5464325 308.12698364 C387.40108618 314.3201749 391.31037266 320.47724067 395.2339325 326.62698364 C402.10388304 337.40054926 408.882163 348.22996972 415.64213562 359.07278442 C418.83684842 364.19661226 422.03491158 369.31834471 425.2339325 374.43948364 C425.85236023 375.42988647 426.47078796 376.42028931 427.10795593 377.44070435 C431.60613284 384.63862083 436.13130938 391.81912918 440.69169617 398.97781372 C441.57974163 400.37707635 442.46062418 401.78091991 443.33305359 403.18997192 C444.11616611 404.44011574 444.92498147 405.67468768 445.76371765 406.88821411 C448.29357788 410.75447882 449.36497521 414.03971794 449.13871765 418.59182739 C447.82774472 424.20318063 444.35552182 428.86656864 441.2339325 433.62698364 C440.49216409 434.78950656 439.75218908 435.95317563 439.01396179 437.11795044 C436.88180109 440.46999143 434.71631439 443.79924111 432.5464325 447.12698364 C431.52729347 448.70582379 430.50893759 450.28517003 429.491745 451.86526489 C428.18539139 453.89004181 426.8763581 455.91280538 425.55863953 457.9302063 C421.41301231 464.28085567 417.4337468 470.73076304 413.45414734 477.18630981 C407.88797798 486.21094989 402.22196364 495.1708749 396.5464325 504.12698364 C390.08053034 514.33848432 383.63915917 524.56479671 377.2339325 534.81448364 C376.61107361 535.80963989 375.98821472 536.80479614 375.34648132 537.83010864 C372.02188619 543.14605321 368.7153621 548.47225258 365.43315125 553.81448364 C364.76130798 554.90285522 364.08946472 555.99122681 363.39726257 557.11257935 C362.11151126 559.19618597 360.83110751 561.28310514 359.55693054 563.37380981 C351.51714339 576.3708922 351.51714339 576.3708922 345.5464325 578.12698364 C340.68640364 577.86189116 337.41633402 577.06375802 333.5464325 574.12698364 C331.38010277 571.30616676 329.56512493 568.29776962 327.7339325 565.25198364 C327.20404724 564.39137329 326.67416199 563.53076294 326.1282196 562.64407349 C324.59120854 560.14418051 323.06810776 557.6362293 321.5464325 555.12698364 C320.84745648 553.99061532 320.14716732 552.85505235 319.44487 551.72073364 C317.85730487 549.15360706 316.2783709 546.58137093 314.70121765 544.00784302 C307.6087619 532.45598697 300.45324923 520.94462792 293.20097351 509.49246216 C289.18978218 503.15526227 285.20707058 496.80060323 281.2339325 490.43948364 C280.60591736 489.43401489 279.97790222 488.42854614 279.33085632 487.39260864 C276.75666253 483.27022724 274.18330299 479.14732533 271.60990906 475.02444458 C267.84973098 469.0009322 264.08660536 462.97928288 260.31889343 456.96047974 C259.15159927 455.09441692 257.98555126 453.22757392 256.82084656 451.3598938 C255.21186138 448.78016362 253.59842534 446.20326938 251.9839325 443.62698364 C251.5196283 442.88021362 251.0553241 442.1334436 250.57695007 441.36404419 C245.13247572 432.25954848 245.13247572 432.25954848 237.5464325 425.12698364 C234.5809522 424.98094527 234.5809522 424.98094527 231.5464325 426.12698364 C215.56134358 443.58605532 206.31908726 471.689789 205.5464325 495.12698364 C205.50776062 496.13438599 205.50776062 496.13438599 205.4683075 497.16213989 C204.24962387 533.17424107 214.99999905 564.60705514 239.58940125 591.02542114 C267.36334257 620.2858551 308.25703802 632.21752571 347.5464325 634.12698364 C390.53733107 634.54755005 432.955442 625.19911804 471.5464325 606.12698364 C472.51258484 605.65276978 473.47873718 605.17855591 474.47416687 604.68997192 C494.26924129 594.89572969 513.16520962 583.79619933 530.5464325 570.12698364 C532.12430703 568.9371435 533.70219495 567.74732092 535.28056335 566.55813599 C551.01525288 554.63245402 565.70048508 541.31429077 579.40190125 527.11135864 C581.5464325 525.12698364 581.5464325 525.12698364 583.5464325 525.12698364 C583.78233093 524.56237427 584.01822937 523.99776489 584.26127625 523.41604614 C585.83878191 520.60626401 587.78694535 518.73079313 590.1089325 516.50198364 C593.23685303 513.61627683 593.23685303 513.61627683 595.5464325 510.12698364 C596.2064325 510.12698364 596.8664325 510.12698364 597.5464325 510.12698364 C597.78490906 509.56753052 598.02338562 509.00807739 598.26908875 508.43167114 C599.83234764 505.61111228 601.762244 503.59097729 603.9839325 501.25198364 C609.40037994 495.43710767 614.26557384 489.262215 619.11576843 482.97366333 C620.60580869 481.05034174 622.10910432 479.13809734 623.616745 477.22854614 C624.11762634 476.59408569 624.61850769 475.95962524 625.13456726 475.30593872 C626.09560547 474.08932387 627.0570133 472.87300088 628.0188446 471.65701294 C629.95851021 469.19428334 631.80629197 466.73719443 633.5464325 464.12698364 C634.2064325 464.45698364 634.8664325 464.78698364 635.5464325 465.12698364 C635.01276062 466.23171021 634.47908875 467.33643677 633.929245 468.47463989 C629.62365027 477.44797302 625.50965114 486.4700813 621.6089325 495.62698364 C614.51118689 512.16591433 605.88082005 527.75638668 596.5464325 543.12698364 C595.98826843 544.05124146 595.43010437 544.97549927 594.85502625 545.92776489 C582.99636417 565.03834062 569.44198143 582.95971706 554.09721375 599.39260864 C551.6849381 601.97850903 549.32994361 604.60604466 546.9839325 607.25198364 C540.65907098 614.28839208 534.0387516 621.03243668 526.835495 627.17385864 C525.06357338 628.68573716 523.31229864 630.22183205 521.56987 631.76760864 C508.23846264 643.52980644 493.75928465 653.92956083 478.5464325 663.12698364 C477.79055847 663.58427856 477.03468445 664.04157349 476.25590515 664.51272583 C416.06824538 700.59440134 344.25403267 713.59226818 275.74125671 696.587677 C250.28800535 690.00371127 226.30585732 680.04791818 204.5464325 665.12698364 C203.57061218 664.46311646 202.59479187 663.79924927 201.58940125 663.11526489 C191.75403033 656.17844392 182.72987046 648.17287787 173.7964325 640.12698364 C173.02601624 639.44188721 173.02601624 639.44188721 172.24003601 638.74295044 C169.83151137 636.54443564 168.59766328 635.280676 167.5464325 632.12698364 C166.95217468 631.83565552 166.35791687 631.54432739 165.74565125 631.24417114 C160.90447249 628.78488673 157.82131784 623.33529042 154.5464325 619.12698364 C153.79748718 618.18081177 153.04854187 617.23463989 152.27690125 616.25979614 C125.1086681 581.14568746 111.97566855 536.41369469 112.2964325 492.31448364 C112.30019897 491.52373444 112.30396545 490.73298523 112.30784607 489.91827393 C112.61727514 434.40515931 133.13431913 384.07391263 164.49565125 338.84182739 C164.95778015 338.17046753 165.41990906 337.49910767 165.89604187 336.80740356 C166.7563738 335.56604507 167.62794382 334.33236074 168.51322937 333.1086731 C171.26845548 329.14084852 172.44102127 325.96480397 172.5464325 321.12698364 C171.65718256 318.36776078 171.65718256 318.36776078 170.0464325 315.87698364 C169.48440125 314.92694458 168.92237 313.97690552 168.3433075 312.99807739 C167.75033875 312.05061646 167.15737 311.10315552 166.5464325 310.12698364 C166.01533875 309.27233521 165.484245 308.41768677 164.9370575 307.53713989 C163.81856654 305.76619589 162.68917249 304.00210242 161.55033875 302.24417114 C159.99434574 299.82373758 158.46365213 297.39334437 156.94877625 294.94729614 C156.49986023 294.22308472 156.05094421 293.49887329 155.58842468 292.75271606 C154.69784603 291.31395319 153.80911861 289.87404247 152.92240906 288.43289185 C151.27500667 285.77776991 149.76421602 283.34476717 147.5464325 281.12698364 C146.87168608 279.95567061 146.23123968 278.76447977 145.6089325 277.56448364 C143.10914623 272.98154215 140.33422613 268.62099939 137.4839325 264.25198364 C133.47989331 258.11331826 129.51598455 251.95290284 125.6089325 245.75198364 C125.11062927 244.96130493 124.61232605 244.17062622 124.09892273 243.35598755 C123.08654428 241.74888766 122.07441901 240.14162824 121.06254578 238.53421021 C118.56116539 234.56261429 116.05356838 230.59494785 113.5464325 226.62698364 C110.59080246 221.9488704 107.63601203 217.27024608 104.6870575 212.58792114 C98.32761789 202.49576698 91.91386391 192.43947629 85.47587585 182.39724731 C81.41076191 176.05252125 77.37092053 169.6929125 73.3589325 163.31448364 C68.73194679 155.96006939 64.01020969 148.67094728 59.26054382 141.39529419 C55.96626929 136.33952873 52.72658562 131.25521588 49.5464325 126.12698364 C44.2152238 117.5333935 38.68695588 109.0707333 33.16020203 100.6020813 C30.61500648 96.69842133 28.07952204 92.78850663 25.5464325 88.87698364 C25.11403259 88.2106189 24.68163269 87.54425415 24.23612976 86.85769653 C21.65480118 82.87120723 19.13131541 78.85543566 16.65971375 74.79983521 C15.52207575 72.97135417 15.52207575 72.97135417 13.5464325 71.12698364 C12.53919567 69.4560864 11.56554606 67.7648701 10.6089325 66.06448364 C5.89496055 57.88579112 0.70950368 50.02677405 -4.4535675 42.12698364 C-6.43599762 39.08742894 -8.4142897 36.04521633 -10.3910675 33.00198364 C-10.83933899 32.31596069 -11.28761047 31.62993774 -11.74946594 30.92312622 C-20.33734004 17.70590188 -20.33734004 17.70590188 -20.4535675 12.12698364 C-18.8600677 6.99237315 -17.08636055 3.92820735 -12.4535675 1.12698364 C-8.26736545 0.22811227 -4.27342891 0.00145409 0 0 Z " fill="#FE8332" transform="translate(124.45356750488281,161.87301635742188)"/>
<path d="M0 0 C2.43650336 -0.00135822 4.87300651 -0.0031405 7.30950928 -0.00531006 C13.19111159 -0.00936535 19.07270213 -0.00881544 24.95430409 -0.00589742 C29.73778727 -0.00362387 34.52126688 -0.00333924 39.30475044 -0.00442123 C39.98977641 -0.00457447 40.67480237 -0.0047277 41.3805867 -0.00488558 C42.77282178 -0.00520535 44.16505686 -0.00552956 45.55729193 -0.00585817 C58.55450728 -0.00869706 71.55171552 -0.00545024 84.5489297 -0.0000578 C95.67601526 0.00441583 106.8030904 0.00362661 117.93017578 -0.00097656 C130.89695026 -0.00633839 143.86371856 -0.00842988 156.83049399 -0.0053643 C158.21499956 -0.00504579 159.59950513 -0.00473142 160.9840107 -0.00442123 C161.66498084 -0.00426696 162.34595099 -0.00411268 163.04755659 -0.00395373 C167.82311255 -0.00309393 172.59866455 -0.00453971 177.37421989 -0.00690079 C183.80693486 -0.0100118 190.2396348 -0.0077704 196.67234802 -0.00200653 C199.02649465 -0.00068908 201.38064294 -0.00105573 203.73478889 -0.0032692 C235.31606063 -0.03021728 235.31606063 -0.03021728 239.86352539 3.56689453 C243.0422547 7.08927025 243.77253325 9.51395897 243.70336914 14.32470703 C241.98897433 23.44274757 234.59062058 32.12167419 229.44970703 39.68310547 C225.18302767 46.00234333 221.21417716 52.49963585 217.23852539 59.00439453 C212.29381844 67.09018275 207.30017537 75.13111744 202.11987305 83.06811523 C197.21195903 90.58860355 192.42777403 98.1858324 187.65014648 105.78955078 C186.17175852 108.13616725 184.68454158 110.47699084 183.19555664 112.81689453 C182.27226295 114.27515404 181.34908055 115.73348402 180.42602539 117.19189453 C179.99539795 117.86486572 179.56477051 118.53783691 179.12109375 119.23120117 C176.91125393 122.43079002 176.91125393 122.43079002 176.17602539 126.12939453 C175.62172852 126.65919922 175.06743164 127.18900391 174.49633789 127.73486328 C171.3730956 130.95800726 169.32304144 134.59062917 167.05102539 138.44189453 C163.59529343 144.20279484 160.076381 149.88499716 156.30102539 155.44189453 C151.68997473 162.2496538 147.37124435 169.22204837 143.06542969 176.22583008 C139.6459837 181.77897823 136.17225323 187.28950494 132.61352539 192.75439453 C123.47575505 206.79181786 114.62012068 221.006871 105.75 235.21435547 C100.40469233 243.77287294 95.0240277 252.30855771 89.62768555 260.83496094 C87.14129006 264.76485411 84.65889764 268.69727485 82.17602539 272.62939453 C81.17604375 274.21273946 80.17604377 275.79607281 79.17602539 277.37939453 C78.43352539 278.55501953 78.43352539 278.55501953 77.67602539 279.75439453 C64.17602539 301.12939453 50.67602539 322.50439453 37.17602539 343.87939453 C36.68054199 344.66427246 36.18505859 345.44915039 35.67456055 346.2578125 C34.68076727 347.83058993 33.68566338 349.40254002 32.68920898 350.97363281 C30.08252735 355.08742242 27.50457309 359.21592114 24.96508789 363.37158203 C24.4352832 364.23074219 23.90547852 365.08990234 23.35961914 365.97509766 C22.35106595 367.61178486 21.35050277 369.25343417 20.35961914 370.90087891 C17.11314887 376.14342824 13.82062287 380.30709579 8.17602539 383.12939453 C6.18774414 383.14892578 6.18774414 383.14892578 3.86352539 382.94189453 C2.72463867 382.85875 2.72463867 382.85875 1.56274414 382.77392578 C-5.83529896 380.7760909 -9.00841084 373.48508179 -12.69897461 367.37939453 C-14.03860869 365.19957816 -15.37845846 363.01989434 -16.71850586 360.84033203 C-17.39993652 359.7249707 -18.08136719 358.60960937 -18.78344727 357.46044922 C-21.95192969 352.28806656 -25.16845948 347.14605355 -28.38647461 342.00439453 C-29.00482178 341.0144751 -29.62316895 340.02455566 -30.26025391 339.00463867 C-35.61948681 330.43252708 -41.04307617 321.90222111 -46.48022461 313.37939453 C-49.67496633 308.36962633 -52.84505036 303.34458977 -56.01147461 298.31689453 C-59.74315473 292.39516049 -63.5113762 286.49934704 -67.32397461 280.62939453 C-74.10891965 270.18160683 -80.77163233 259.65540265 -87.34741211 249.07470703 C-92.42694058 240.90244653 -97.61425724 232.8094886 -102.87329102 224.75146484 C-106.50688187 219.17649527 -110.09265005 213.57431228 -113.63647461 207.94189453 C-118.31585373 200.50657647 -123.02780798 193.09277971 -127.76147461 185.69189453 C-128.43428467 184.63800537 -129.10709473 183.58411621 -129.80029297 182.49829102 C-133.04996247 177.41816349 -136.32319064 172.35728659 -139.66381836 167.33642578 C-140.26137939 166.43400146 -140.85894043 165.53157715 -141.47460938 164.60180664 C-142.58833508 162.92420113 -143.70942188 161.25144872 -144.83935547 159.5847168 C-151.41200335 149.66669011 -151.41200335 149.66669011 -150.4777832 144.046875 C-148.65641337 137.83463001 -145.29650288 132.53853485 -141.82397461 127.12939453 C-141.24655518 126.21367676 -140.66913574 125.29795898 -140.07421875 124.35449219 C-138.33568528 121.60521676 -136.58307471 118.86554736 -134.82397461 116.12939453 C-134.08703369 114.98229004 -134.08703369 114.98229004 -133.33520508 113.81201172 C-131.08620714 110.31883683 -128.82512426 106.8337088 -126.55834961 103.35205078 C-123.67019913 98.90658462 -120.83711646 94.42727607 -118.01147461 89.94189453 C-108.92626669 75.52432275 -99.79928166 61.13384572 -90.52172852 46.83911133 C-88.03822413 43.01180563 -85.57532139 39.17290903 -83.13647461 35.31689453 C-82.03262287 33.58752681 -80.92845046 31.85836373 -79.82397461 30.12939453 C-78.87264648 28.61732422 -78.87264648 28.61732422 -77.90209961 27.07470703 C-70.30461898 15.2662197 -61.09107971 5.28380177 -46.98335361 1.70774651 C-43.1710354 1.0098683 -39.39123691 0.75105656 -35.52781677 0.56326294 C-34.28900699 0.50134079 -34.28900699 0.50134079 -33.02517074 0.43816769 C-22.02118974 -0.05918349 -11.01274265 -0.01042323 0 0 Z " fill="#FE8332" transform="translate(583.823974609375,161.87060546875)"/>
<path d="M0 0 C0.33 0.66 0.66 1.32 1 2 C0.15674164 2.00879936 0.15674164 2.00879936 -0.70355225 2.01777649 C-6.60981185 2.0822275 -12.5155523 2.16677298 -18.42138672 2.26245117 C-20.61890777 2.29549297 -22.81650947 2.32358787 -25.01416016 2.34643555 C-44.32966873 2.55266656 -58.9697107 3.59330741 -73.98828125 16.93457031 C-77.4819314 20.52149753 -79.87074388 24.69140832 -82.375 29 C-83.50442607 30.88406355 -84.63594996 32.76687108 -85.76953125 34.6484375 C-86.31818848 35.56463867 -86.8668457 36.48083984 -87.43212891 37.42480469 C-89.54420175 40.89383994 -91.78012048 44.26648225 -94.0625 47.625 C-99.37619077 55.48770964 -104.41947861 63.51419297 -109.46337891 71.55175781 C-111.99129972 75.57940159 -114.5256959 79.60294664 -117.0625 83.625 C-117.5577417 84.41068359 -118.0529834 85.19636719 -118.56323242 86.00585938 C-121.89571355 91.28196962 -125.28035531 96.52188793 -128.6875 101.75 C-132.49574265 107.59796203 -136.15407662 113.5147928 -139.7097168 119.51928711 C-142.74483395 124.62770302 -145.92842588 129.6308145 -149.17041016 134.61010742 C-152.88968421 140.32695629 -154.44685977 144.12953139 -153 151 C-150.34627711 156.70361409 -146.56178609 161.83842864 -143 167 C-141.622706 169.06096882 -140.24747526 171.12331907 -138.875 173.1875 C-138.22917969 174.1465625 -137.58335937 175.105625 -136.91796875 176.09375 C-134.94175377 179.08825905 -133.05618002 182.12483579 -131.1875 185.1875 C-128.15670672 190.15446995 -125.04659438 195.05935376 -121.875 199.9375 C-116.88770242 207.60836732 -111.96685067 215.32001988 -107.06103516 223.04321289 C-103.80703456 228.16452025 -100.54121076 233.27753699 -97.25 238.375 C-93.65013053 243.95915506 -90.11898999 249.58364293 -86.62402344 255.23388672 C-84.4960179 258.66095505 -82.31673005 262.043695 -80.0703125 265.39453125 C-76.98183692 270.00191313 -74.0121257 274.6778747 -71.0625 279.375 C-70.00144061 281.05998307 -68.94024374 282.74487958 -67.87890625 284.4296875 C-67.37762207 285.22600586 -66.87633789 286.02232422 -66.35986328 286.84277344 C-64.74772714 289.40019444 -63.12589181 291.95130473 -61.5 294.5 C-54.59200179 305.34101909 -47.7299789 316.21124176 -40.9375 327.125 C-37.14135981 333.22183122 -33.25354837 339.25424556 -29.3293457 345.26928711 C-24.92212638 352.05493191 -20.689925 358.94659241 -16.50268555 365.86987305 C-11.90995999 374.05740882 -11.90995999 374.05740882 -5 380 C0.73465331 380.64735665 0.73465331 380.64735665 5.625 378.0625 C12.38126281 369.3504769 17.93190502 359.73468513 23.69726562 350.35546875 C24.65729492 348.80666016 24.65729492 348.80666016 25.63671875 347.2265625 C26.21123779 346.29408691 26.78575684 345.36161133 27.37768555 344.40087891 C28.78255711 342.32179584 30.15194244 340.68119717 32 339 C31.442077 343.51334727 29.69841923 346.3699316 27.1875 350.125 C26.3709199 351.35448977 25.55590372 352.5850192 24.7421875 353.81640625 C24.30229492 354.48043457 23.86240234 355.14446289 23.40917969 355.82861328 C21.88063855 358.18392251 20.40931285 360.56891365 18.9453125 362.96484375 C18.42557861 363.80966309 17.90584473 364.65448242 17.37036133 365.52490234 C16.35221168 367.18336456 15.34130019 368.846298 14.33862305 370.51416016 C11.03122119 375.8585637 7.75564531 380.12217735 2 383 C0.01171875 383.01953125 0.01171875 383.01953125 -2.3125 382.8125 C-3.45138672 382.72935547 -3.45138672 382.72935547 -4.61328125 382.64453125 C-12.01132435 380.64669637 -15.18443623 373.35568726 -18.875 367.25 C-20.21463408 365.07018363 -21.55448385 362.89049981 -22.89453125 360.7109375 C-23.57596191 359.59557617 -24.25739258 358.48021484 -24.95947266 357.33105469 C-28.12795508 352.15867203 -31.34448487 347.01665902 -34.5625 341.875 C-35.18084717 340.88508057 -35.79919434 339.89516113 -36.4362793 338.87524414 C-41.79551221 330.30313255 -47.21910157 321.77282657 -52.65625 313.25 C-55.85099172 308.2402318 -59.02107575 303.21519524 -62.1875 298.1875 C-65.91918012 292.26576596 -69.68740159 286.36995251 -73.5 280.5 C-80.28494504 270.0522123 -86.94765772 259.52600812 -93.5234375 248.9453125 C-98.60296597 240.77305199 -103.79028263 232.68009407 -109.04931641 224.62207031 C-112.68290726 219.04710074 -116.26867545 213.44491775 -119.8125 207.8125 C-124.49187912 200.37718194 -129.20383337 192.96338518 -133.9375 185.5625 C-134.61031006 184.50861084 -135.28312012 183.45472168 -135.97631836 182.36889648 C-139.22598786 177.28876896 -142.49921603 172.22789206 -145.83984375 167.20703125 C-146.43740479 166.30460693 -147.03496582 165.40218262 -147.65063477 164.47241211 C-148.76436047 162.7948066 -149.88544727 161.12205418 -151.01538086 159.45532227 C-157.58802874 149.53729558 -157.58802874 149.53729558 -156.65380859 143.91748047 C-154.83243876 137.70523548 -151.47252827 132.40914032 -148 127 C-147.42258057 126.08428223 -146.84516113 125.16856445 -146.25024414 124.22509766 C-144.51171067 121.47582223 -142.7591001 118.73615283 -141 116 C-140.26305908 114.85289551 -140.26305908 114.85289551 -139.51123047 113.68261719 C-137.26223253 110.1894423 -135.00114965 106.70431427 -132.734375 103.22265625 C-129.84622452 98.77719009 -127.01314185 94.29788154 -124.1875 89.8125 C-115.10229208 75.39492822 -105.97530705 61.00445119 -96.69775391 46.7097168 C-94.21424952 42.8824111 -91.75134678 39.0435145 -89.3125 35.1875 C-88.20864826 33.45813228 -87.10447585 31.7289692 -86 30 C-85.04867187 28.48792969 -85.04867187 28.48792969 -84.078125 26.9453125 C-76.40210265 15.01475064 -67.19894763 5.22154309 -53.015625 1.5234375 C-35.77593788 -1.46894343 -17.44238782 -0.10879524 0 0 Z " fill="#FC7117" transform="translate(590,162)"/>
<path d="M0 0 C3.89240604 3.46190952 6.25633067 7.44140177 8.875 11.875 C13.06892615 18.85678788 17.35964266 25.76502815 21.75 32.625 C28.60390957 43.35171215 35.35727384 54.13914559 42.09130859 64.94140625 C44.66682515 69.06855787 47.25016016 73.19078993 49.83398438 77.31274414 C51.71437233 80.31805838 53.58595057 83.32872895 55.45703125 86.33984375 C57.72596528 89.985351 60.03416462 93.59935664 62.38671875 97.19140625 C62.90459961 97.99723145 63.42248047 98.80305664 63.95605469 99.63330078 C64.90528416 101.10970614 65.86954323 102.57661985 66.85253906 104.03076172 C69.4428348 108.10763595 70.89098673 111.6160176 70.61206055 116.50219727 C69.24349284 122.0872855 65.80464399 126.74636413 62.6875 131.5 C61.94573159 132.66252292 61.20575659 133.82619198 60.4675293 134.9909668 C58.3353686 138.34300779 56.16988189 141.67225746 54 145 C52.98086098 146.57884014 51.96250509 148.15818639 50.9453125 149.73828125 C49.63895889 151.76305817 48.32992561 153.78582174 47.01220703 155.80322266 C42.86657982 162.15387203 38.8873143 168.6037794 34.90771484 175.05932617 C29.34154549 184.08396625 23.67553114 193.04389126 18 202 C11.53409784 212.21150067 5.09272668 222.43781306 -1.3125 232.6875 C-1.93535889 233.68265625 -2.55821777 234.6778125 -3.19995117 235.703125 C-6.52454631 241.01906956 -9.83107039 246.34526893 -13.11328125 251.6875 C-14.12104614 253.32005737 -14.12104614 253.32005737 -15.14916992 254.9855957 C-16.43492123 257.06920233 -17.71532498 259.15612149 -18.98950195 261.24682617 C-27.0292891 274.24390856 -27.0292891 274.24390856 -33 276 C-37.86002886 275.73490752 -41.13009847 274.93677438 -45 272 C-47.16632973 269.17918312 -48.98130756 266.17078597 -50.8125 263.125 C-51.34238525 262.26438965 -51.87227051 261.4037793 -52.41821289 260.51708984 C-53.95522396 258.01719687 -55.47832473 255.50924566 -57 253 C-57.69897602 251.86363168 -58.39926518 250.7280687 -59.1015625 249.59375 C-60.68912763 247.02662341 -62.2680616 244.45438729 -63.84521484 241.88085938 C-70.93767059 230.32900333 -78.09318326 218.81764427 -85.34545898 207.36547852 C-89.35665032 201.02827862 -93.33936192 194.67361959 -97.3125 188.3125 C-98.25452271 186.80429687 -98.25452271 186.80429687 -99.21557617 185.265625 C-101.78976997 181.14324359 -104.3631295 177.02034169 -106.93652344 172.89746094 C-110.69670152 166.87394855 -114.45982713 160.85229924 -118.22753906 154.83349609 C-119.39483322 152.96743328 -120.56088123 151.10059028 -121.72558594 149.23291016 C-123.33457112 146.65317997 -124.94800715 144.07628574 -126.5625 141.5 C-127.0268042 140.75322998 -127.4911084 140.00645996 -127.96948242 139.23706055 C-133.41395677 130.13256483 -133.41395677 130.13256483 -141 123 C-142.9896995 122.60986284 -144.99019869 122.26797351 -147 122 C-145 120 -145 120 -141.8125 119.875 C-133.4792338 122.33399658 -129.79260042 130.74133513 -125.7578125 137.90625 C-122.28876226 144.01177842 -118.53725672 149.96693227 -114.375 155.625 C-112.61157058 158.03668141 -111.13582475 160.49567139 -109.71875 163.125 C-107.03828817 167.9981172 -104.11742324 172.68877036 -101.125 177.375 C-100.32848022 178.62978149 -100.32848022 178.62978149 -99.51586914 179.90991211 C-97.36777001 183.29206056 -95.21193302 186.66914665 -93.05078125 190.04296875 C-88.95953783 196.43244092 -84.99895955 202.8960725 -81.05322266 209.37597656 C-77.97883399 214.41835549 -74.84692787 219.41835722 -71.66015625 224.390625 C-67.44491352 231.01599476 -63.37885032 237.73574512 -59.29296875 244.44140625 C-56.95625953 248.27635607 -54.61304587 252.10725556 -52.26464844 255.93505859 C-51.47113026 257.23072978 -50.67977751 258.5277323 -49.89160156 259.82666016 C-48.95581745 261.36803157 -48.00959093 262.9030501 -47.0625 264.4375 C-46.55847656 265.26121094 -46.05445313 266.08492187 -45.53515625 266.93359375 C-42.94651699 270.41804711 -40.76646745 271.80489919 -36.5625 272.875 C-32.33201416 273.0234381 -31.32104863 272.5515979 -28 270 C-25.99305032 267.46369176 -24.31383079 264.75520681 -22.625 262 C-22.1815625 261.29488281 -21.738125 260.58976562 -21.28125 259.86328125 C-20.35038015 258.38186837 -19.42429022 256.89744362 -18.50244141 255.41040039 C-16.87584692 252.80081843 -15.22055135 250.21079232 -13.5625 247.62109375 C-10.0777105 242.15395603 -6.72067285 236.61544793 -3.375 231.0625 C1.77323114 222.55606368 7.07675878 214.1717834 12.52587891 205.85546875 C16.41901666 199.91123633 20.18514327 193.90901369 23.87890625 187.83837891 C33.09524697 172.72534633 42.56790136 157.78158514 52.14526367 142.89526367 C54.58433739 139.08784295 56.99515231 135.26273977 59.40112305 131.43432617 C61.42705909 128.34979292 63.63596998 125.44412126 65.93359375 122.55859375 C67.70486205 118.30884747 67.81084212 114.51946731 67 110 C65.20253377 105.86629307 62.85052213 102.19561156 60.375 98.4375 C59.75753906 97.46103516 59.14007812 96.48457031 58.50390625 95.47851562 C55.18918723 90.26219464 51.7565441 85.1255406 48.31787109 79.99047852 C46.52405433 77.28114393 44.81693147 74.52389623 43.125 71.75 C42.44179688 70.63367188 41.75859375 69.51734375 41.0546875 68.3671875 C40.37664062 67.25601563 39.69859375 66.14484375 39 65 C31.40483597 52.57443876 23.62326158 40.26887225 15.80859375 27.98046875 C0 3.09321144 0 3.09321144 0 0 Z " fill="#FD7317" transform="translate(503,464)"/>
<path d="M0 0 C0.66 0.33 1.32 0.66 2 1 C1.61070312 1.6084375 1.22140625 2.216875 0.8203125 2.84375 C-1.12538074 5.89230161 -3.06456008 8.94493305 -5 12 C-5.3801123 12.59973633 -5.76022461 13.19947266 -6.15185547 13.81738281 C-18.0583479 32.63874322 -29.00540858 51.59847463 -38 72 C-38.804375 73.7634375 -38.804375 73.7634375 -39.625 75.5625 C-41.00869426 79.02173565 -42.09498553 82.46111445 -43.12109375 86.0390625 C-43.76020311 88.19215091 -44.44632318 90.33145568 -45.16015625 92.4609375 C-48.83798343 103.4545201 -51.11983674 114.57077103 -53 126 C-53.18022705 127.00305176 -53.3604541 128.00610352 -53.54614258 129.03955078 C-55.13540324 138.67431067 -55.33931097 148.15459816 -55.31567383 157.90185547 C-55.31252873 160.60035236 -55.33601102 163.29773251 -55.36132812 165.99609375 C-55.42451518 182.88646567 -53.1833125 199.11219858 -48.8125 215.4375 C-48.51134277 216.57364746 -48.21018555 217.70979492 -47.89990234 218.88037109 C-36.47165717 260.74871871 -11.64707568 297.62805196 23 324 C23.65387695 324.49790039 24.30775391 324.99580078 24.98144531 325.50878906 C35.20519162 333.22648771 45.59423504 340.15744909 57 346 C58.17433594 346.60199219 59.34867187 347.20398438 60.55859375 347.82421875 C82.30807362 358.42500576 105.30782119 364.5846394 129 369 C129 369.33 129 369.66 129 370 C122.08157023 370.3388956 116.01209385 369.10309347 109.3125 367.4375 C107.65927734 367.02878662 107.65927734 367.02878662 105.97265625 366.61181641 C80.219867 360.09573768 55.98564988 350.07606222 34 335 C33.02417969 334.33613281 32.04835938 333.67226563 31.04296875 332.98828125 C21.20759783 326.05146027 12.18343796 318.04589422 3.25 310 C2.47958374 309.31490356 2.47958374 309.31490356 1.69360352 308.6159668 C-0.71492112 306.417452 -1.94876921 305.15369236 -3 302 C-3.59425781 301.70867187 -4.18851562 301.41734375 -4.80078125 301.1171875 C-9.64196001 298.65790309 -12.72511465 293.20830677 -16 289 C-17.12341797 287.58074219 -17.12341797 287.58074219 -18.26953125 286.1328125 C-45.43776439 251.01870381 -58.57076395 206.28671105 -58.25 162.1875 C-58.24623352 161.39675079 -58.24246704 160.60600159 -58.23858643 159.79129028 C-57.94453044 107.03618241 -38.63259681 38.63259681 0 0 Z " fill="#FC7016" transform="translate(295,492)"/>
<path d="M0 0 C1.22081268 0.00007553 2.44162537 0.00015106 3.69943237 0.00022888 C5.0027652 0.00539017 6.30609802 0.01055145 7.64892578 0.01586914 C9.0079849 0.01773638 10.3670447 0.01915884 11.72610474 0.02015686 C15.28692514 0.02395791 18.84770415 0.03376737 22.4085083 0.04486084 C26.0485376 0.05512704 29.68857365 0.0596656 33.32861328 0.06469727 C40.45883845 0.075392 47.58903565 0.09243917 54.71923828 0.11352539 C55.21423828 1.10352539 55.21423828 1.10352539 55.71923828 2.11352539 C54.90348831 2.11939163 54.08773834 2.12525787 53.24726868 2.13130188 C45.55207698 2.1892536 37.85720815 2.26134419 30.16230488 2.3492403 C26.20644997 2.39392994 22.2506977 2.43318896 18.29467773 2.45996094 C14.4754507 2.48600828 10.65661898 2.52642024 6.83763695 2.57671165 C5.38208122 2.59337081 3.92645712 2.60489104 2.47081947 2.6111393 C0.4286131 2.62079125 -1.61258419 2.64886062 -3.65454102 2.68115234 C-5.39661079 2.69780693 -5.39661079 2.69780693 -7.1738739 2.71479797 C-10.61081081 3.15588277 -12.5027731 4.08085699 -15.28076172 6.11352539 C-17.6148895 9.3368447 -17.67083039 12.21283865 -17.28076172 16.11352539 C-15.43714664 20.17836345 -13.24001439 23.81382108 -10.71826172 27.48852539 C-7.61739941 32.0780263 -4.6310193 36.71533566 -1.71826172 41.42602539 C3.15601931 49.29262192 8.20475664 57.04138465 13.27807617 64.78076172 C16.94649023 70.37966213 20.57445774 76.00151599 24.15820312 81.6550293 C26.04795949 84.63123302 27.95739513 87.59440464 29.87158203 90.55493164 C30.71923828 92.11352539 30.71923828 92.11352539 30.71923828 94.11352539 C31.37923828 94.11352539 32.03923828 94.11352539 32.71923828 94.11352539 C33.19232422 94.97333008 33.66541016 95.83313477 34.15283203 96.71899414 C38.12732044 103.85635146 42.37085028 110.61814721 47.09423828 117.29321289 C52.32883211 124.80246067 57.10206584 132.63393007 61.98681641 140.37280273 C64.3535184 144.11696797 66.73257301 147.85321846 69.11230469 151.58911133 C70.73422024 154.13706132 72.35211896 156.68752934 73.96923828 159.23852539 C76.49854358 163.21638137 79.05454039 167.17602194 81.62182617 171.12939453 C86.05528151 177.95806729 90.43198703 184.81644371 94.73144531 191.73022461 C100.09296943 200.3410299 105.55995701 208.88501168 111.01342773 217.43774414 C115.90677496 225.11358292 120.79305408 232.79385052 125.65673828 240.48852539 C126.17469971 241.30796631 126.69266113 242.12740723 127.22631836 242.97167969 C130.1502882 247.60504728 133.04679871 252.25288413 135.90673828 256.92602539 C139.70126342 263.11956849 143.62057185 269.22683729 147.56494141 275.32543945 C148.73995848 277.14562241 149.91004028 278.96888694 151.07861328 280.79321289 C151.46549316 281.39689697 151.85237305 282.00058105 152.25097656 282.62255859 C153.01261996 283.81103763 153.77401911 284.99967324 154.53515625 286.18847656 C157.19098292 290.32455166 159.92181446 294.40287642 162.72314453 298.44165039 C163.71923828 300.11352539 163.71923828 300.11352539 163.71923828 302.11352539 C163.05923828 302.11352539 162.39923828 302.11352539 161.71923828 302.11352539 C160.42236328 300.40112305 160.42236328 300.40112305 158.96923828 298.02758789 C158.44330078 297.17938477 157.91736328 296.33118164 157.37548828 295.45727539 C156.82892578 294.56008789 156.28236328 293.66290039 155.71923828 292.73852539 C154.63820533 290.97929725 153.55497063 289.22141963 152.46923828 287.46508789 C151.98970703 286.67956543 151.51017578 285.89404297 151.01611328 285.0847168 C149.73821694 282.99778527 149.73821694 282.99778527 147.71923828 281.11352539 C147.04449187 279.94221236 146.40404547 278.75102152 145.78173828 277.55102539 C143.28195201 272.9680839 140.50703191 268.60754114 137.65673828 264.23852539 C133.65269909 258.09986001 129.68879034 251.93944458 125.78173828 245.73852539 C125.28343506 244.94784668 124.78513184 244.15716797 124.27172852 243.3425293 C123.25935006 241.73542941 122.2472248 240.12816999 121.23535156 238.52075195 C118.73397117 234.54915604 116.22637416 230.58148959 113.71923828 226.61352539 C110.76360825 221.93541215 107.80881782 217.25678783 104.85986328 212.57446289 C98.50042367 202.48230873 92.08666969 192.42601804 85.64868164 182.38378906 C81.5835677 176.039063 77.54372632 169.67945424 73.53173828 163.30102539 C68.90475257 155.94661114 64.18301547 148.65748902 59.43334961 141.38183594 C56.13907507 136.32607047 52.89939141 131.24175762 49.71923828 126.11352539 C44.38802958 117.51993525 38.85976166 109.05727505 33.33300781 100.58862305 C30.78781227 96.68496307 28.25232783 92.77504837 25.71923828 88.86352539 C25.28683838 88.19716064 24.85443848 87.5307959 24.40893555 86.84423828 C21.82760697 82.85774897 19.3041212 78.84197741 16.83251953 74.78637695 C15.69488154 72.95789592 15.69488154 72.95789592 13.71923828 71.11352539 C12.71200146 69.44262815 11.73835184 67.75141185 10.78173828 66.05102539 C6.06776634 57.87233287 0.88230946 50.0133158 -4.28076172 42.11352539 C-6.26319183 39.07397069 -8.24148391 36.03175808 -10.21826172 32.98852539 C-10.6665332 32.30250244 -11.11480469 31.61647949 -11.57666016 30.90966797 C-20.16453426 17.69244362 -20.16453426 17.69244362 -20.28076172 12.11352539 C-18.68726191 6.97891489 -16.91355477 3.91474909 -12.28076172 1.11352539 C-8.14953986 0.22865941 -4.21684909 -0.00874865 0 0 Z " fill="#FB7018" transform="translate(124.28076171875,161.886474609375)"/>
<path d="M0 0 C61.69767294 -0.38009182 61.69767294 -0.38009182 80.8605957 17.57983398 C85.10737841 21.80207299 88.3336601 26.46747809 91.4765625 31.56640625 C92.91176919 34.06120708 92.91176919 34.06120708 95 36 C98.30409479 40.85499643 101.33938977 45.89784054 104.37890625 50.921875 C110.110619 60.39275429 116.02721223 69.71756923 122.09741211 78.9753418 C132.78077566 95.2737512 143.21175309 111.73627968 153.66040039 128.18579102 C154.20301514 129.03971436 154.74562988 129.8936377 155.3046875 130.7734375 C155.77890137 131.52028809 156.25311523 132.26713867 156.74169922 133.03662109 C157.8095886 134.7028932 158.90219093 136.35328639 160 138 C159.67 138.99 159.34 139.98 159 141 C152.69682435 131.29150699 146.42742692 121.56177447 140.1875 111.8125 C139.17465942 110.23021606 139.17465942 110.23021606 138.14135742 108.6159668 C134.76370416 103.33504864 131.39412184 98.04921063 128.0390625 92.75390625 C127.41104736 91.76350342 126.78303223 90.77310059 126.13598633 89.75268555 C124.95694142 87.89200777 123.77957882 86.03026243 122.60424805 84.16723633 C120.27054768 80.48458028 117.92497054 76.84347408 115.35546875 73.3203125 C113.38942461 70.61670725 111.71667767 67.81755981 110.09033203 64.89355469 C107.86935623 61.03643684 105.37800444 57.34544881 102.9375 53.625 C96.14622876 43.24875257 96.14622876 43.24875257 92.94921875 38.1953125 C82.71426334 22.0335714 70.99304219 8.91188968 51.49992371 4.42446899 C45.05981212 3.21022994 38.84750787 2.66943637 32.30078125 2.5859375 C30.85918892 2.55688828 30.85918892 2.55688828 29.38847351 2.5272522 C26.3632351 2.46817701 23.33795712 2.42136346 20.3125 2.375 C18.2428233 2.33675368 16.17316138 2.29769826 14.10351562 2.2578125 C9.06913261 2.16253618 4.03467535 2.07824437 -1 2 C-0.67 1.34 -0.34 0.68 0 0 Z " fill="#FB7017" transform="translate(241,162)"/>
<path d="M0 0 C0 4.23174825 -2.38605644 6.1665471 -5.0625 9.1875 C-5.59762207 9.80044922 -6.13274414 10.41339844 -6.68408203 11.04492188 C-19.30908207 25.39694371 -32.41746636 39.95081722 -47.03515625 52.3125 C-49.4595773 54.39470655 -51.78350032 56.57502207 -54.125 58.75 C-65.30280657 68.91582408 -77.5365448 77.77747339 -89.86279297 86.48925781 C-91.19302692 87.4295694 -92.52066526 88.37357767 -93.84423828 89.32324219 C-109.10907972 100.23844778 -126.06558669 108.80182834 -142.9375 116.9375 C-143.62247559 117.27346191 -144.30745117 117.60942383 -145.01318359 117.95556641 C-149.63839682 120.12053439 -149.63839682 120.12053439 -153 119 C-152.11183594 118.56171875 -151.22367188 118.1234375 -150.30859375 117.671875 C-146.71898594 115.8938629 -143.13943675 114.09631366 -139.56298828 112.29199219 C-137.82313728 111.41494023 -136.08187446 110.54068449 -134.33935547 109.66894531 C-115.17640052 100.0517351 -96.87689407 89.27259346 -80 76 C-78.42212546 74.81015985 -76.84423755 73.62033728 -75.26586914 72.43115234 C-59.53117961 60.50547038 -44.84594741 47.18730713 -31.14453125 32.984375 C-29 31 -29 31 -27 31 C-26.76410156 30.43539062 -26.52820313 29.87078125 -26.28515625 29.2890625 C-24.70765058 26.47928037 -22.75948714 24.60380949 -20.4375 22.375 C-17.30957946 19.48929319 -17.30957946 19.48929319 -15 16 C-14.34 16 -13.68 16 -13 16 C-12.78601563 15.46890625 -12.57203125 14.9378125 -12.3515625 14.390625 C-10.48655451 11.09182474 -7.95775758 8.49008292 -5.375 5.75 C-4.859375 5.19570313 -4.34375 4.64140625 -3.8125 4.0703125 C-2.54574965 2.7097288 -1.27342185 1.35434163 0 0 Z " fill="#FD7418" transform="translate(735,656)"/>
<path d="M0 0 C11.82511526 -0.86105208 11.82511526 -0.86105208 15.6875 2.375 C18.8335456 5.94618689 19.59678245 8.36546534 19.52734375 13.1953125 C17.81294894 22.31335304 10.41459519 30.99227966 5.27368164 38.55371094 C1.00700227 44.8729488 -2.96184823 51.37024132 -6.9375 57.875 C-11.88220695 65.96078822 -16.87585002 74.00172291 -22.05615234 81.9387207 C-26.96406636 89.45920902 -31.74825136 97.05643786 -36.52587891 104.66015625 C-38.00426687 107.00677271 -39.49148381 109.3475963 -40.98046875 111.6875 C-41.90376244 113.14575951 -42.82694484 114.60408949 -43.75 116.0625 C-44.39594116 117.07195679 -44.39594116 117.07195679 -45.05493164 118.10180664 C-47.26477146 121.30139549 -47.26477146 121.30139549 -48 125 C-48.55429687 125.52980469 -49.10859375 126.05960937 -49.6796875 126.60546875 C-52.80291859 129.82860118 -54.85301284 133.46121457 -57.125 137.3125 C-61.08711702 143.91758685 -65.17828512 150.39510355 -69.49267578 156.77514648 C-72.65427527 161.45377808 -75.67159854 166.20996108 -78.625 171.0234375 C-80 173 -80 173 -82 174 C-80.63443483 170.28028565 -78.93500061 167.12401876 -76.77734375 163.8046875 C-76.15666016 162.84175781 -75.53597656 161.87882813 -74.89648438 160.88671875 C-74.25001953 159.89285156 -73.60355469 158.89898437 -72.9375 157.875 C-71.65199473 155.89514352 -70.36930667 153.91345415 -69.08984375 151.9296875 C-68.52128662 151.05554199 -67.95272949 150.18139648 -67.36694336 149.28076172 C-65.86920043 146.96835783 -65.86920043 146.96835783 -65 144 C-64.34 144 -63.68 144 -63 144 C-62.72760498 143.27184082 -62.45520996 142.54368164 -62.17456055 141.79345703 C-61.04317663 139.10268696 -59.7517644 136.77697229 -58.20703125 134.3046875 C-57.66256348 133.42925293 -57.1180957 132.55381836 -56.55712891 131.65185547 C-55.98140137 130.73549316 -55.40567383 129.81913086 -54.8125 128.875 C-53.92957275 127.45985107 -53.92957275 127.45985107 -53.02880859 126.01611328 C-49.05468199 119.65465558 -45.050911 113.31284101 -41 107 C-39.83264985 105.16710179 -38.66600186 103.33375622 -37.5 101.5 C-36.62601563 100.12714844 -36.62601563 100.12714844 -35.734375 98.7265625 C-34.61843138 96.97221871 -33.50374536 95.21707399 -32.390625 93.4609375 C-29.79460576 89.36911671 -27.19053767 85.28406018 -24.53515625 81.23046875 C-19.57084129 73.63889393 -14.752972 65.98935179 -10.125 58.1875 C-5.98393073 51.20879329 -1.69479975 44.35182368 2.75 37.5625 C3.29342041 36.72984619 3.83684082 35.89719238 4.39672852 35.03930664 C8.4478992 28.83484999 8.4478992 28.83484999 10.34814453 25.96142578 C11.51579285 24.19056095 12.66631274 22.40979986 13.8125 20.625 C14.75029297 19.19027344 14.75029297 19.19027344 15.70703125 17.7265625 C17.21259011 14.5516982 17.33692063 12.47509561 17 9 C15.68830117 5.96238166 14.73596012 4.43291772 11.875 2.75 C7.95182434 1.72656287 4.03410589 1.33397827 0 1 C0 0.67 0 0.34 0 0 Z " fill="#FA7016" transform="translate(808,163)"/>
<path d="M0 0 C0.99 0.495 0.99 0.495 2 1 C1.46632813 2.10472656 0.93265625 3.20945312 0.3828125 4.34765625 C-3.92278222 13.32098937 -8.03678135 22.34309766 -11.9375 31.5 C-19.03524561 48.03893068 -27.66561245 63.62940303 -37 79 C-37.55816406 79.92425781 -38.11632812 80.84851563 -38.69140625 81.80078125 C-51.25233559 102.04308092 -65.76732184 120.60960428 -82 138 C-84.35083359 140.60722251 -86.6909979 143.22354905 -89.02734375 145.84375 C-90.96881118 147.96590845 -92.88111954 150.05363799 -95 152 C-95.66 152 -96.32 152 -97 152 C-95.48031735 148.13171688 -93.20197271 146.56157817 -90 144 C-88.27463737 142.14699575 -86.63771119 140.23226411 -84.99609375 138.3046875 C-82.85100105 135.82796599 -80.61612142 133.45254521 -78.375 131.0625 C-72.28988932 124.39388556 -66.90802814 117.21996461 -61.50146484 109.99804688 C-60.17569929 108.23380861 -58.83678986 106.48124434 -57.48828125 104.734375 C-52.33648013 98.00916167 -47.66811307 91.046837 -43.17675781 83.87255859 C-41.95935466 81.93532163 -40.72691607 80.00826485 -39.4921875 78.08203125 C-31.26515686 65.18352042 -24.31139762 51.89473167 -17.88671875 38.01953125 C-15.82449272 33.58338396 -13.60016013 29.23640782 -11.32421875 24.90625 C-9.56109149 21.03673176 -8.28161199 17.05036175 -7 13 C-7.35304199 13.4846875 -7.70608398 13.969375 -8.06982422 14.46875 C-9.66490904 16.65077988 -11.26977716 18.82541895 -12.875 21 C-13.70837891 22.1446875 -13.70837891 22.1446875 -14.55859375 23.3125 C-15.36103516 24.3953125 -15.36103516 24.3953125 -16.1796875 25.5 C-16.67194824 26.1703125 -17.16420898 26.840625 -17.67138672 27.53125 C-18.1098291 28.0159375 -18.54827148 28.500625 -19 29 C-19.66 29 -20.32 29 -21 29 C-19.65328663 26.11966286 -18.11733548 23.68365535 -16.171875 21.171875 C-15.61886719 20.45386719 -15.06585937 19.73585938 -14.49609375 18.99609375 C-13.91988281 18.25488281 -13.34367188 17.51367188 -12.75 16.75 C-11.61942089 15.28674474 -10.48921102 13.82320411 -9.359375 12.359375 C-8.52889648 11.28526367 -8.52889648 11.28526367 -7.68164062 10.18945312 C-5.09050293 6.81585806 -2.54228381 3.41049336 0 0 Z " fill="#FA6F15" transform="translate(758,626)"/>
<path d="M0 0 C5.22556421 4.5810449 8.47099908 10.23024891 12.0625 16.125 C13.40323313 18.29843172 14.74438384 20.4716059 16.0859375 22.64453125 C16.74819336 23.7217041 17.41044922 24.79887695 18.09277344 25.90869141 C20.7590726 30.23033504 23.46891188 34.5236263 26.1875 38.8125 C27.16022055 40.35021975 28.13287716 41.88797994 29.10546875 43.42578125 C29.58161621 44.17811035 30.05776367 44.93043945 30.54833984 45.70556641 C33.53789848 50.4307383 36.52205616 55.1593238 39.50732422 59.88720703 C41.96804365 63.78394514 44.42987083 67.67997188 46.89453125 71.57421875 C58.4038184 89.765007 69.81538179 108.01429855 81.05151367 126.37524414 C84.3644921 131.77430814 87.7167734 137.14140801 91.15625 142.4609375 C91.81359131 143.47913574 92.47093262 144.49733398 93.14819336 145.54638672 C94.39959571 147.47719474 95.65794874 149.40352025 96.92407227 151.32470703 C97.47635498 152.17661621 98.0286377 153.02852539 98.59765625 153.90625 C99.08758057 154.65197266 99.57750488 155.39769531 100.08227539 156.16601562 C100.53654907 157.07383789 100.53654907 157.07383789 101 158 C100.67 158.66 100.34 159.32 100 160 C93.75955972 151.45235469 88.19988702 142.48835301 82.58496094 133.52441406 C81.045115 131.07185599 79.497067 128.62472501 77.9453125 126.1796875 C72.52299407 117.63369939 67.15889697 109.05749382 61.91577148 100.40014648 C58.95443827 95.51982763 55.90831423 90.69847908 52.83618164 85.88720703 C49.73301342 81.00779375 46.68261829 76.09553184 43.625 71.1875 C38.94937557 63.69281615 34.23629703 56.22882268 29.4375 48.8125 C25.40130032 42.53396717 21.48253161 36.18037268 17.53417969 29.84643555 C13.32249879 23.09674146 9.06579285 16.38043666 4.734375 9.70703125 C0 2.31756757 0 2.31756757 0 0 Z " fill="#FD7217" transform="translate(402,304)"/>
<path d="M0 0 C-2.38034273 5.68991015 -7.43341125 9.06245129 -12 13 C-12.96292969 13.84949219 -13.92585937 14.69898438 -14.91796875 15.57421875 C-27.95123755 26.95996484 -42.19553101 37.04947847 -57 46 C-57.75587402 46.45729492 -58.51174805 46.91458984 -59.29052734 47.38574219 C-87.33452703 64.19773488 -124.78457288 83.51642469 -158.375 83.0625 C-159.24898438 83.05347656 -160.12296875 83.04445313 -161.0234375 83.03515625 C-161.67570312 83.02355469 -162.32796875 83.01195312 -163 83 C-159.35611324 80.80994018 -155.56738048 80.31664855 -151.4375 79.6875 C-127.08589918 75.65305558 -104.38102178 67.19719345 -82 57 C-81.34080566 56.70544922 -80.68161133 56.41089844 -80.00244141 56.10742188 C-62.44767334 48.21296997 -45.90425276 37.11468673 -31 25 C-29.88309209 24.14206598 -28.76317771 23.28803482 -27.640625 22.4375 C-20.28175484 16.83059517 -13.44148235 10.86202953 -6.79736328 4.41894531 C-6.19907715 3.84370117 -5.60079102 3.26845703 -4.984375 2.67578125 C-4.45553711 2.15927002 -3.92669922 1.64275879 -3.38183594 1.1105957 C-2 0 -2 0 0 0 Z " fill="#FB7016" transform="translate(660,779)"/>
<path d="M0 0 C1 3 1 3 0.01879883 5.05859375 C-0.75427612 6.23615234 -0.75427612 6.23615234 -1.54296875 7.4375 C-2.40233032 8.76467041 -2.40233032 8.76467041 -3.27905273 10.11865234 C-3.90884033 11.06949707 -4.53862793 12.0203418 -5.1875 13 C-6.49516567 15.0127779 -7.80245135 17.02580272 -9.109375 19.0390625 C-9.76873047 20.04743164 -10.42808594 21.05580078 -11.10742188 22.09472656 C-13.75765556 26.16306775 -16.3517312 30.26549839 -18.9375 34.375 C-19.41598389 35.13296875 -19.89446777 35.8909375 -20.38745117 36.671875 C-25.09166469 44.12801859 -29.75791186 51.60786414 -34.42675781 59.08618164 C-39.77187463 67.64425886 -45.15225136 76.179564 -50.54833984 84.70556641 C-53.03473533 88.63545958 -55.51712775 92.56788032 -58 96.5 C-58.99998164 98.08334493 -59.99998162 99.66667828 -61 101.25 C-61.495 102.03375 -61.99 102.8175 -62.5 103.625 C-64 106 -65.5 108.375 -67 110.75 C-67.49508057 111.53391113 -67.99016113 112.31782227 -68.50024414 113.12548828 C-69.49930785 114.70727138 -70.49849386 116.28897724 -71.49780273 117.87060547 C-74.01314153 121.85202979 -76.52627637 125.83481447 -79.03515625 129.8203125 C-82.01501119 134.55223396 -85.00468181 139.27785399 -88 144 C-88.51578613 144.8146875 -89.03157227 145.629375 -89.56298828 146.46875 C-91.07826257 148.85765765 -92.60049979 151.24197211 -94.125 153.625 C-94.58656494 154.35412598 -95.04812988 155.08325195 -95.52368164 155.83447266 C-98.77040461 160.8852023 -98.77040461 160.8852023 -101 162 C-99.29157893 157.04261632 -96.56256758 152.80339029 -93.8125 148.375 C-93.35552734 147.63121094 -92.89855469 146.88742187 -92.42773438 146.12109375 C-88.68093062 140.04098225 -84.84316239 134.01948762 -81 128 C-79.8917128 126.26055318 -78.78363684 124.52097174 -77.67578125 122.78125 C-77.12817139 121.92144531 -76.58056152 121.06164062 -76.01635742 120.17578125 C-70.39563191 111.34885022 -64.78894958 102.51342787 -59.21289062 93.65820312 C-56.92517695 90.02952296 -54.62544032 86.41007811 -52.2890625 82.8125 C-51.65931519 81.84183594 -51.65931519 81.84183594 -51.0168457 80.8515625 C-49.89586809 79.1281702 -48.77037923 77.40771456 -47.64453125 75.6875 C-45.89096584 73.04861774 -45.89096584 73.04861774 -45 70 C-44.34 70 -43.68 70 -43 70 C-41.92474806 67.34771188 -40.90543849 64.71631546 -40 62 C-39.34 62 -38.68 62 -38 62 C-37.72027344 61.26265625 -37.44054687 60.5253125 -37.15234375 59.765625 C-33.72153878 51.53169307 -28.16669259 44.12648617 -23.31518555 36.66967773 C-19.69624857 31.10062736 -16.15859409 25.48539444 -12.65185547 19.84521484 C-8.50532898 13.18442944 -4.26141432 6.58769363 0 0 Z " fill="#FB7015" transform="translate(724,338)"/>
<path d="M0 0 C2.92183463 2.77446139 5.22422297 5.6186585 7.5 8.9375 C24.67127437 32.86836185 48.20528641 48.01162049 75.671875 57.7734375 C78.23811271 58.71921055 80.60058255 59.70334512 83 61 C75.4975204 63.50082653 63.96642344 56.73505975 57.0625 53.3125 C44.52810871 46.9080441 33.18834884 39.77017034 23 30 C21.81874785 29.03397599 20.63171921 28.0749471 19.4375 27.125 C11.47732374 20.32607299 5.0112951 11.1363483 0 2 C0 1.34 0 0.68 0 0 Z " fill="#FD7116" transform="translate(344,729)"/>
<path d="M0 0 C23.43 0 46.86 0 71 0 C66.36991303 3.08672465 61.46487344 2.79940762 56 3.1875 C54.80479736 3.27354492 53.60959473 3.35958984 52.37817383 3.44824219 C34.99118517 4.54423755 17.16160677 4.26736691 0 1 C0 0.67 0 0.34 0 0 Z " fill="#FB7017" transform="translate(425,862)"/>
<path d="M0 0 C0.66 0 1.32 0 2 0 C0.54839003 3.0223264 -1.08399838 5.91993358 -2.76611328 8.81933594 C-4.5324044 11.86728021 -6.26636234 14.93340322 -8 18 C-8.47050781 18.82757812 -8.94101562 19.65515625 -9.42578125 20.5078125 C-15.44110144 31.7546978 -18.90724983 44.6832581 -22 57 C-22.33 57 -22.66 57 -23 57 C-22.47355197 37.09069252 -12.19244996 15.32765138 0 0 Z " fill="#FD7216" transform="translate(353,587)"/>
<path d="M0 0 C0.66 0.33 1.32 0.66 2 1 C0.54555549 4.10600335 -0.91422352 7.20947021 -2.375 10.3125 C-2.7875 11.19357422 -3.2 12.07464844 -3.625 12.98242188 C-4.22441406 14.25375977 -4.22441406 14.25375977 -4.8359375 15.55078125 C-5.20251465 16.33106689 -5.5690918 17.11135254 -5.94677734 17.9152832 C-7 20 -7 20 -9 23 C-9.08935201 19.78332751 -8.84062397 17.09773244 -8 14 C-8.32274902 14.45439453 -8.64549805 14.90878906 -8.97802734 15.37695312 C-10.43693305 17.42288345 -11.90578398 19.46146277 -13.375 21.5 C-13.88289062 22.21542969 -14.39078125 22.93085937 -14.9140625 23.66796875 C-15.64882813 24.68310547 -15.64882813 24.68310547 -16.3984375 25.71875 C-17.07398682 26.66137695 -17.07398682 26.66137695 -17.76318359 27.62304688 C-18.37540771 28.30463867 -18.37540771 28.30463867 -19 29 C-19.66 29 -20.32 29 -21 29 C-19.65328663 26.11966286 -18.11733548 23.68365535 -16.171875 21.171875 C-15.61886719 20.45386719 -15.06585937 19.73585938 -14.49609375 18.99609375 C-13.91988281 18.25488281 -13.34367188 17.51367188 -12.75 16.75 C-11.61942089 15.28674474 -10.48921102 13.82320411 -9.359375 12.359375 C-8.80572266 11.64330078 -8.25207031 10.92722656 -7.68164062 10.18945312 C-5.09050293 6.81585806 -2.54228381 3.41049336 0 0 Z " fill="#F1731F" transform="translate(758,626)"/>
<path d="M0 0 C-29.49047716 11.90318579 -29.49047716 11.90318579 -36 10 C-31.52065816 8.4014853 -27.03668309 6.81703107 -22.54785156 5.24536133 C-21.02175916 4.70882927 -19.49699951 4.16849049 -17.97363281 3.62426758 C-15.78269933 2.84230142 -13.58732522 2.07418613 -11.390625 1.30859375 C-10.7113092 1.06282089 -10.03199341 0.81704803 -9.33209229 0.56382751 C-5.90146541 -0.6164115 -3.44409736 -1.44269412 0 0 Z " fill="#FE7113" transform="translate(580,778)"/>
<path d="M0 0 C0 4.42310331 -2.77709255 6.64198258 -5.5625 9.8125 C-6.33303711 10.71838867 -6.33303711 10.71838867 -7.11914062 11.64257812 C-10.76238157 15.84701395 -14.68371229 19.4944799 -19 23 C-17.79618552 20.50638429 -16.54571278 18.31856917 -15 16 C-14.34 16 -13.68 16 -13 16 C-12.78601563 15.46890625 -12.57203125 14.9378125 -12.3515625 14.390625 C-10.48655451 11.09182474 -7.95775758 8.49008292 -5.375 5.75 C-4.859375 5.19570313 -4.34375 4.64140625 -3.8125 4.0703125 C-2.54574965 2.7097288 -1.27342185 1.35434163 0 0 Z " fill="#FC7011" transform="translate(735,656)"/>
<path d="M0 0 C5.36945787 4.57983171 10.19701286 11.19035536 11.37890625 18.26953125 C11.375 20.1875 11.375 20.1875 11 23 C10.67 23 10.34 23 10 23 C9.649375 21.7625 9.29875 20.525 8.9375 19.25 C7.17845614 13.87893888 4.38181768 9.29599015 1.42578125 4.50390625 C0 2 0 2 0 0 Z " fill="#FC7117" transform="translate(288,465)"/>
<path d="M0 0 C0.33 0.66 0.66 1.32 1 2 C-1.45614035 7 -1.45614035 7 -3 9 C-3.99 9.33 -4.98 9.66 -6 10 C-4.6302836 6.00499382 -2.74277578 3.19990508 0 0 Z " fill="#FC8E40" transform="translate(751,638)"/>
<path d="M0 0 C2.30143236 3.45214853 2.13833854 4.23479324 1.625 8.1875 C1.51414063 9.08855469 1.40328125 9.98960937 1.2890625 10.91796875 C1.19367188 11.60503906 1.09828125 12.29210937 1 13 C-0.9078584 9.8250906 -1.1609041 7.89414789 -0.625 4.25 C-0.51414063 3.45078125 -0.40328125 2.6515625 -0.2890625 1.828125 C-0.19367188 1.22484375 -0.09828125 0.6215625 0 0 Z " fill="#FC771F" transform="translate(240,613)"/>
<path d="M0 0 C0.66 0.66 1.32 1.32 2 2 C1.34 2 0.68 2 0 2 C0 1.34 0 0.68 0 0 Z " fill="#F8833A" transform="translate(410,861)"/>
<path d="M0 0 C2 1 2 1 2 1 Z " fill="#FB883B" transform="translate(592,768)"/>
<path d="M0 0 C2 1 2 1 2 1 Z " fill="#FB873F" transform="translate(608,760)"/>
<path d="" fill="#F68237" transform="translate(0,0)"/>
<path d="" fill="#FD8639" transform="translate(0,0)"/>
<path d="" fill="#FB853A" transform="translate(0,0)"/>
<path d="" fill="#FD8538" transform="translate(0,0)"/>
<path d="" fill="#FB873A" transform="translate(0,0)"/>
<path d="" fill="#F88338" transform="translate(0,0)"/>
<path d="" fill="#FE873A" transform="translate(0,0)"/>
<path d="" fill="#764727" transform="translate(0,0)"/>
<path d="" fill="#F68438" transform="translate(0,0)"/>
<path d="" fill="#FC8438" transform="translate(0,0)"/>
<path d="" fill="#F88238" transform="translate(0,0)"/>
<path d="" fill="#F88237" transform="translate(0,0)"/>
<path d="" fill="#F78337" transform="translate(0,0)"/>
<path d="" fill="#F78336" transform="translate(0,0)"/>
<path d="" fill="#F88437" transform="translate(0,0)"/>
<path d="" fill="#F68336" transform="translate(0,0)"/>
<path d="" fill="#F48137" transform="translate(0,0)"/>
<path d="" fill="#F48439" transform="translate(0,0)"/>
<path d="" fill="#F28036" transform="translate(0,0)"/>
<path d="" fill="#FD883A" transform="translate(0,0)"/>
<path d="" fill="#FD8739" transform="translate(0,0)"/>
<path d="" fill="#FD8B3C" transform="translate(0,0)"/>
<path d="" fill="#F1853D" transform="translate(0,0)"/>
<path d="" fill="#FF883C" transform="translate(0,0)"/>
<path d="" fill="#F58138" transform="translate(0,0)"/>
<path d="" fill="#F68239" transform="translate(0,0)"/>
<path d="" fill="#F58239" transform="translate(0,0)"/>
<path d="" fill="#FF883B" transform="translate(0,0)"/>
<path d="" fill="#FF873D" transform="translate(0,0)"/>
<path d="" fill="#FC873A" transform="translate(0,0)"/>
<path d="" fill="#F58136" transform="translate(0,0)"/>
<path d="" fill="#F98236" transform="translate(0,0)"/>
<path d="" fill="#F48438" transform="translate(0,0)"/>
<path d="" fill="#F7893C" transform="translate(0,0)"/>
<path d="" fill="#FF8738" transform="translate(0,0)"/>
<path d="" fill="#FC863C" transform="translate(0,0)"/>
<path d="" fill="#FC863A" transform="translate(0,0)"/>
<path d="" fill="#FD8839" transform="translate(0,0)"/>
<path d="" fill="#FD8739" transform="translate(0,0)"/>
<path d="" fill="#E47731" transform="translate(0,0)"/>
<path d="" fill="#FD873D" transform="translate(0,0)"/>
<path d="" fill="#FB8536" transform="translate(0,0)"/>
<path d="" fill="#FB873B" transform="translate(0,0)"/>
<path d="" fill="#D0793C" transform="translate(0,0)"/>
<path d="" fill="#FE893B" transform="translate(0,0)"/>
<path d="" fill="#FF8639" transform="translate(0,0)"/>
<path d="" fill="#FE8537" transform="translate(0,0)"/>
<path d="" fill="#FF8A3B" transform="translate(0,0)"/>
<path d="" fill="#FA873B" transform="translate(0,0)"/>
<path d="" fill="#FB873A" transform="translate(0,0)"/>
<path d="" fill="#F9813E" transform="translate(0,0)"/>
<path d="" fill="#FE8939" transform="translate(0,0)"/>
<path d="" fill="#F98134" transform="translate(0,0)"/>
<path d="" fill="#FB873B" transform="translate(0,0)"/>
<path d="" fill="#FE873A" transform="translate(0,0)"/>
<path d="" fill="#FD863B" transform="translate(0,0)"/>
<path d="" fill="#FE8738" transform="translate(0,0)"/>
<path d="" fill="#FE8538" transform="translate(0,0)"/>
<path d="" fill="#FE8536" transform="translate(0,0)"/>
<path d="" fill="#FC873A" transform="translate(0,0)"/>
<path d="" fill="#FE8338" transform="translate(0,0)"/>
<path d="" fill="#FE8839" transform="translate(0,0)"/>
<path d="" fill="#FF8739" transform="translate(0,0)"/>
<path d="" fill="#FF8839" transform="translate(0,0)"/>
<path d="" fill="#F58136" transform="translate(0,0)"/>
<path d="" fill="#F88439" transform="translate(0,0)"/>
<path d="" fill="#F7843A" transform="translate(0,0)"/>
<path d="" fill="#F9863A" transform="translate(0,0)"/>
<path d="" fill="#F58538" transform="translate(0,0)"/>
<path d="" fill="#FE893A" transform="translate(0,0)"/>
<path d="" fill="#FC8638" transform="translate(0,0)"/>
<path d="" fill="#FD8839" transform="translate(0,0)"/>
<path d="" fill="#FD8639" transform="translate(0,0)"/>
<path d="" fill="#FD843A" transform="translate(0,0)"/>
<path d="" fill="#F98338" transform="translate(0,0)"/>
<path d="" fill="#FA8236" transform="translate(0,0)"/>
<path d="" fill="#FD873A" transform="translate(0,0)"/>
<path d="" fill="#FE863A" transform="translate(0,0)"/>
<path d="" fill="#FD883A" transform="translate(0,0)"/>
<path d="" fill="#FF8838" transform="translate(0,0)"/>
<path d="" fill="#FE8338" transform="translate(0,0)"/>
<path d="" fill="#F9843A" transform="translate(0,0)"/>
<path d="" fill="#F88238" transform="translate(0,0)"/>
<path d="" fill="#F7843A" transform="translate(0,0)"/>
<path d="" fill="#FF8439" transform="translate(0,0)"/>
<path d="" fill="#F98438" transform="translate(0,0)"/>
<path d="" fill="#FD853B" transform="translate(0,0)"/>
<path d="" fill="#F88638" transform="translate(0,0)"/>
<path d="" fill="#FE8637" transform="translate(0,0)"/>
<path d="" fill="#F68239" transform="translate(0,0)"/>
<path d="" fill="#F7833B" transform="translate(0,0)"/>
<path d="" fill="#F98537" transform="translate(0,0)"/>
<path d="" fill="#F78039" transform="translate(0,0)"/>
<path d="" fill="#F78134" transform="translate(0,0)"/>
<path d="" fill="#F78436" transform="translate(0,0)"/>
<path d="" fill="#F1823C" transform="translate(0,0)"/>
<path d="" fill="#F6863A" transform="translate(0,0)"/>
<path d="" fill="#F78238" transform="translate(0,0)"/>
<path d="" fill="#FA883A" transform="translate(0,0)"/>
<path d="" fill="#FA853A" transform="translate(0,0)"/>
<path d="" fill="#F78437" transform="translate(0,0)"/>
<path d="" fill="#F68339" transform="translate(0,0)"/>
<path d="" fill="#F48135" transform="translate(0,0)"/>
<path d="" fill="#F5843D" transform="translate(0,0)"/>
<path d="" fill="#DE7C37" transform="translate(0,0)"/>
<path d="" fill="#F58136" transform="translate(0,0)"/>
</svg>
